<?xml version="1.0" encoding="utf-8"?>
<!-- Generator: Adobe Illustrator 15.0.2, SVG Export Plug-In . SVG Version: 6.00 Build 0)  -->
<!DOCTYPE svg PUBLIC "-//W3C//DTD SVG 1.1//EN" "http://www.w3.org/Graphics/SVG/1.1/DTD/svg11.dtd">
<svg version="1.1" id="Layer_1" xmlns="http://www.w3.org/2000/svg" xmlns:xlink="http://www.w3.org/1999/xlink" x="0px" y="0px"
	 width="612px" height="792px" viewBox="0 0 612 792" enable-background="new 0 0 612 792" xml:space="preserve">
<g>
	<path fill="#7ED3F7" d="M490.886,436.224c-9.086,0-19.237,20.839-27.787,48.628c-4.275,18.968-9.085,39.541-13.626,60.381
		c1.869,1.604,5.075,2.938,7.479,2.938c19.238,0,40.345-66.527,40.345-96.986C497.297,441.835,495.16,436.224,490.886,436.224z"/>
	<path fill="#7ED3F7" d="M147.296,435.688c-17.901,0-34.199,62.521-34.199,90.576c0,8.015,1.337,13.089,4.542,13.089
		c10.688,0,21.107-26.717,29.122-58.777c2.405-11.489,5.077-24.047,8.016-36.605C154.51,440.498,153.174,435.688,147.296,435.688z"
		/>
	<path fill="#7ED3F7" d="M389.089,439.163c-10.42,0-22.175,26.182-30.992,60.381c-2.674,10.956-5.078,22.445-7.75,33.934
		c5.611-2.673,11.489,3.74,13.628,9.084c16.564-10.688,32.062-61.721,32.062-87.903
		C396.036,445.041,393.898,439.163,389.089,439.163z"/>
	<path fill="#7ED3F7" d="M305.999,8.988c0,0-270.259,297.886-270.259,489.35c0,157.22,113.039,284.674,270.259,284.674
		c157.222,0,270.261-127.454,270.261-284.674C576.26,306.874,305.999,8.988,305.999,8.988z M325.77,366.757
		c10.955,0,15.765,6.412,15.765,13.894c0,11.221-10.955,25.381-27.787,25.381c-8.282,0-12.022-5.878-12.022-12.823
		C301.725,381.719,311.075,366.757,325.77,366.757z M461.494,561.264c-6.146,0-10.953-2.672-14.428-5.878
		c-8.015,36.604-14.961,69.733-15.764,79.352c-0.533,4.543-4.809,6.681-9.083,6.681c-5.878,0-12.024-3.474-12.024-10.954
		c0-6.947,9.353-56.644,19.504-105.002c-12.822,21.374-30.189,34.467-60.381,34.467c-12.291,0-19.505-3.208-23.514-6.681
		c-6.946,31.528-12.557,59.581-13.357,68.933c-0.534,6.412-5.078,9.62-9.887,9.62c-5.61,0-11.487-4.543-11.487-13.093
		c0-4.751,7.835-46.112,16.69-89.148c-7.381,13.896-17.864,27.964-30.581,27.964c-10.421,0-19.237-7.481-19.237-27.52
		c0-7.388,2.159-21.876,5.53-39.188c-6.335,6.769-14.047,11.667-22.362,11.667c-10.688,0-20.84-4.543-20.84-20.572
		c0-14.694,11.756-32.596,11.756-40.879c0-1.869-0.801-3.206-2.672-3.206c-9.084,0-30.993,38.208-37.94,83.36l-4.274,28.321
		c-0.801,5.878-5.343,8.817-9.886,8.817c-5.076,0-10.152-3.74-10.152-11.756c0-4.264,0.477-10.304,1.348-17.555
		c-7.054,14.543-17.293,28.509-33.408,28.509c-10.687,0-16.832-11.488-16.832-27.52c0-0.801,0-2.405,0.267-4.008
		c-9.084,19.504-19.771,31.527-28.855,31.527c-14.427,0-20.572-15.496-20.572-36.337c0-40.61,23.512-100.994,54.237-100.994
		c7.214,0,11.488,6.413,13.894,12.825c5.611-25.115,11.756-49.161,15.764-63.856c1.068-4.008,4.542-5.878,8.549-5.878
		c6.68,0,14.696,5.344,14.696,15.229c0,17.367-36.07,120.767-36.07,151.76c0,7.213,1.604,11.221,5.344,11.221
		c8.937,0,19.577-22.927,26.8-37.787c3.811-21.782,9.448-47.375,15.947-69.62c1.337-4.542,5.611-6.679,10.153-6.679
		c6.146,0,13.092,4.274,13.092,11.757c0,4.542-3.206,11.221-4.541,16.029c9.617-20.572,21.374-35.535,34.466-35.535
		c9.885,0,13.626,5.878,13.626,17.367c0,14.963-12.825,39.809-12.825,49.161c0,3.74,2.138,5.879,6.146,5.879
		c6.212,0,13.48-9.68,18.824-19.045c3.424-15.751,7.488-32.513,11.634-47.752c1.336-4.54,5.611-6.946,10.687-6.946
		c6.68,0,13.894,4.542,13.894,13.628c0,14.16-22.176,78.551-22.176,99.122c0,5.611,1.336,8.817,4.81,8.817
		c9.886,0,24.58-32.328,27.519-38.206c0.042-0.079,0.087-0.145,0.129-0.223c5.723-26.827,11.252-51.232,14.83-64.168
		c1.87-6.68,7.215-9.618,12.291-9.618c5.879,0,11.488,3.739,11.488,10.152c0,1.069,0,1.869-2.137,10.687
		c7.749-16.832,17.367-28.588,28.856-28.588c16.298,0,22.977,15.764,22.977,35.002c0,31.526-16.833,75.345-39.009,93.779
		c24.313-5.343,38.741-20.573,51.566-47.023c0-0.268,0-0.268,0.267-0.534c6.146-29.925,12.29-56.91,16.032-69.735
		c1.603-5.878,5.878-8.281,10.419-8.281c6.413,0,13.092,4.809,13.092,10.421c0,2.671-1.336,7.479-2.403,12.021
		c8.015-16.832,17.366-28.588,28.588-28.588c16.031,0,22.442,15.495,22.442,35.269C522.946,495.003,493.022,561.264,461.494,561.264
		z"/>
</g>
</svg>
